<svg xmlns="http://www.w3.org/2000/svg" xmlns:xlink="http://www.w3.org/1999/xlink" xmlns:lucid="lucid" width="680" height="1180"><g transform="translate(-660 1200)" lucid:page-tab-id="0_0"><path d="M680-1138.33V-1174c0-3.3 2.7-6 6-6h314v41.67zM1000-1180h314c3.3 0 6 2.7 6 6v35.67h-320z" stroke="#5e5e5e" stroke-width="3" fill="#fff"/><path d="M1000-40H686c-3.3 0-6-2.7-6-6v-1092.33h320zM1320-1138.33V-46c0 3.3-2.7 6-6 6h-314v-1098.33z" stroke="#5e5e5e" stroke-width="3" fill="none"/><use xlink:href="#a" transform="matrix(1,0,0,1,680,-1180) translate(136.60493827160494 25.444444444444443)"/><use xlink:href="#b" transform="matrix(1,0,0,1,1000,-1180) translate(112.5 25.444444444444443)"/><path d="M860-1080c0 11.05-8.95 20-20 20s-20-8.95-20-20 8.95-20 20-20 20 8.95 20 20z" stroke="#5e5e5e" stroke-width="3"/><path d="M794.55-1000c-8.04 0-14.55 6.5-14.55 14.55v43.64c0 8.03 6.5 14.54 14.55 14.54h90.9c8.04 0 14.55-6.5 14.55-14.55v-43.65c0-8.04-6.5-14.55-14.55-14.55z" stroke="#5e5e5e" stroke-width="3" fill="#fff"/><use xlink:href="#c" transform="matrix(1,0,0,1,788,-992) translate(28.203703703703706 19.611111111111114)"/><use xlink:href="#d" transform="matrix(1,0,0,1,788,-992) translate(13.851851851851855 46.277777777777786)"/><path d="M835.7-854.63c2.37-2.3 6.23-2.3 8.6 0l42.25 41.04c2.38 2.32 2.38 6.06 0 8.37l-42.25 41.05c-2.37 2.3-6.23 2.3-8.6 0l-42.25-41.05c-2.38-2.3-2.38-6.05 0-8.36z" stroke="#5e5e5e" stroke-width="3" fill="#fff"/><path d="M800-823.4c0-3.32 2.7-6 6-6h68c3.3 0 6 2.68 6 6v28c0 3.3-2.7 6-6 6h-68c-3.3 0-6-2.7-6-6z" stroke="#000" stroke-opacity="0" stroke-width="3" fill="#fff" fill-opacity="0"/><use xlink:href="#e" transform="matrix(1,0,0,1,805.0000000000002,-824.4074511668139) translate(0.8641975308642031 12.444444444444441)"/><use xlink:href="#f" transform="matrix(1,0,0,1,805.0000000000002,-824.4074511668139) translate(17.283950617283953 12.444444444444441)"/><use xlink:href="#g" transform="matrix(1,0,0,1,805.0000000000002,-824.4074511668139) translate(24.197530864197535 31.1111111111111)"/><path d="M712.57-700c-4.42 0-8 3.58-8 8v24c0 4.42 3.58 8 8 8h53.14c4.43 0 8-3.58 8-8v-24c0-4.42-3.57-8-8-8z" stroke="#5e5e5e" stroke-width="3" fill="#fff"/><use xlink:href="#h" transform="matrix(1,0,0,1,712.5669291338584,-692) translate(5.203703703703713 10.666666666666663)"/><use xlink:href="#i" transform="matrix(1,0,0,1,712.5669291338584,-692) translate(12.240740740740748 26.666666666666657)"/><path d="M841-685.87l-.92 3.42-2.53 2.53-3.42.92H793.7v-2h40.17l2.64-.7 1.8-1.8.7-2.63v-29.04h2m0-21.33h-2V-760h2" fill="#5e5e5e"/><path d="M840.4-760.94l.6-.13v1.1h-2v-1.14M792.7-675.36L778.46-680l14.26-4.64z" fill="#5e5e5e"/><path d="M793.7-674l-18.5-6 18.5-6m-12.02 6l10.03 3.26v-6.52" fill="#5e5e5e"/><use xlink:href="#j" transform="matrix(1,0,0,1,828.1975310250299,-736.5013123359578) translate(0 14.222222222222223)"/><path d="M961.65-808.4h-70.83v-2h70.83m138.35 2H992.26v-2H1100" fill="#5e5e5e"/><path d="M890.84-808.4h-1.18l.2-1.26-.17-.75h1.14M1115.26-809.4l-14.26 4.63v-9.27z" fill="#5e5e5e"/><path d="M1118.5-809.4l-18.5 6v-12.02m2 9.27l10.03-3.26-10.03-3.27" fill="#5e5e5e"/><use xlink:href="#k" transform="matrix(1,0,0,1,961.6454086139585,-820.0741178944928) translate(0 14.222222222222223)"/><path d="M739.14-702.5v-255.13c0-3.3 2.7-6 6-6H760" stroke="#5e5e5e" stroke-width="2" fill="none"/><path d="M740.14-701.5h-2v-1.03h2" fill="#5e5e5e"/><path d="M775.26-963.63L761-959v-9.26z" stroke="#5e5e5e" stroke-width="2" fill="#5e5e5e"/><path d="M840-924.76v48.44" stroke="#5e5e5e" stroke-width="2" fill="none"/><path d="M841-924.73h-2v-1.03h2" fill="#5e5e5e"/><path d="M840-861.07l-4.64-14.26h9.28z" stroke="#5e5e5e" stroke-width="2" fill="#5e5e5e"/><path d="M1130.12-834.7c-5.6 0-10.12 4.53-10.12 10.1v30.37c0 5.6 4.53 10.12 10.12 10.12h99.76c5.6 0 10.12-4.54 10.12-10.13v-30.36c0-5.57-4.53-10.1-10.12-10.1z" stroke="#5e5e5e" stroke-width="3" fill="#fff"/><use xlink:href="#l" transform="matrix(1,0,0,1,1128,-826.7037256749254) translate(14.018518518518526 12.444444444444443)"/><use xlink:href="#m" transform="matrix(1,0,0,1,1128,-826.7037256749254) translate(57.18518518518518 12.444444444444443)"/><use xlink:href="#n" transform="matrix(1,0,0,1,1128,-826.7037256749254) translate(20.975308641975317 31.111111111111107)"/><use xlink:href="#o" transform="matrix(1,0,0,1,1128,-826.7037256749254) translate(61.46296296296296 31.111111111111107)"/><path d="M836.6-535.76c2.36-2.34 6.15-2.34 8.5 0l41.5 41.52c2.36 2.34 2.36 6.14 0 8.48l-41.5 41.52c-2.35 2.34-6.14 2.34-8.5 0l-41.5-41.52c-2.35-2.34-2.35-6.14 0-8.48z" stroke="#5e5e5e" stroke-width="3" fill="#fff"/><path d="M805-514c0-3.3 2.7-6 6-6h58c3.3 0 6 2.7 6 6v28c0 3.3-2.7 6-6 6h-58c-3.3 0-6-2.7-6-6z" stroke="#000" stroke-opacity="0" stroke-width="3" fill="#fff" fill-opacity="0"/><use xlink:href="#p" transform="matrix(1,0,0,1,810,-515) translate(13.601851851851855 12.444444444444443)"/><use xlink:href="#q" transform="matrix(1,0,0,1,810,-515) translate(-2.364197530864189 31.111111111111107)"/><path d="M698.85-340c-6.63 0-12 5.37-12 12v36c0 6.63 5.37 12 12 12h80.58c6.63 0 12-5.37 12-12v-36c0-6.63-5.37-12-12-12z" stroke="#5e5e5e" stroke-width="3" fill="#fff"/><use xlink:href="#r" transform="matrix(1,0,0,1,694.8503937007874,-332) translate(19.07098765432099 15.777777777777779)"/><use xlink:href="#s" transform="matrix(1,0,0,1,694.8503937007874,-332) translate(17.796296296296298 34.44444444444444)"/><path d="M1181-605.87l-.92 3.42-2.53 2.53-3.42.92H847l-2.66.7-1.77 1.8-.72 2.63v36.38h-2v-36.63l.93-3.42 2.53-2.53 3.42-.92h327.15l2.64-.7 1.8-1.8.7-2.63V-781.6h2M1181-781.6h-2v-1h2M840.85-542.22l-4.63-14.27h9.27z" fill="#5e5e5e"/><path d="M840.85-539l-6-18.5h12.02m-9.27 2l3.25 10.04 3.26-10.03" fill="#5e5e5e"/><path d="M840-1057.5v37.5" stroke="#5e5e5e" stroke-width="2" fill="none"/><path d="M839.93-1058.5l1.07-.03v1.06h-2v-1.14" fill="#5e5e5e"/><path d="M840-1004.74l-4.64-14.26h9.28z" stroke="#5e5e5e" stroke-width="2" fill="#5e5e5e"/><path d="M740.14-360h-2v-52.1h2m50.73-76.9h-45.6l-2.64.7-1.78 1.8-.7 2.63v50.44h-2v-50.7l.9-3.42 2.54-2.53 3.4-.92h45.87" fill="#5e5e5e"/><path d="M791.82-489.67l.16.67h-1.14v-2H792M739.14-344.74L734.5-359h9.27z" fill="#5e5e5e"/><path d="M739.14-341.5l-6-18.5h12m-9.26 2l3.26 10.03L742.4-358" fill="#5e5e5e"/><use xlink:href="#k" transform="matrix(1,0,0,1,723.8309115205873,-433.43184265744037) translate(0 14.222222222222223)"/><path d="M902.85-340c-6.62 0-12 5.37-12 12v36c0 6.63 5.38 12 12 12h76c6.63 0 12-5.37 12-12v-36c0-6.63-5.37-12-12-12z" stroke="#5e5e5e" stroke-width="3" fill="#fff"/><use xlink:href="#t" transform="matrix(1,0,0,1,898.854751275925,-332) translate(3.175925925925938 15.777777777777779)"/><use xlink:href="#u" transform="matrix(1,0,0,1,898.854751275925,-332) translate(27.330246913580254 15.777777777777779)"/><use xlink:href="#v" transform="matrix(1,0,0,1,898.854751275925,-332) translate(64.44753086419753 15.777777777777779)"/><use xlink:href="#w" transform="matrix(1,0,0,1,898.854751275925,-332) translate(16.57098765432099 34.44444444444444)"/><path d="M941.85-360h-2v-58.76h2m-3.45-71.32l2.53 2.53.92 3.42v44.04h-2v-43.77l-.7-2.64-1.8-1.8-2.63-.7h-43.88v-2H935" fill="#5e5e5e"/><path d="M890.87-489h-1.17l.2-1.33-.17-.67h1.14M940.85-344.74L936.22-359h9.27z" fill="#5e5e5e"/><path d="M940.85-341.5l-6-18.5h12.02m-9.27 2l3.25 10.03L944.1-358" fill="#5e5e5e"/><use xlink:href="#j" transform="matrix(1,0,0,1,929.0522821401225,-440.09419357618543) translate(0 14.222222222222223)"/><path d="M835.76-195.76c2.34-2.34 6.14-2.34 8.48 0l11.52 11.52c2.34 2.34 2.34 6.14 0 8.48l-11.52 11.52c-2.34 2.34-6.14 2.34-8.48 0l-11.52-11.52c-2.34-2.34-2.34-6.14 0-8.48z" stroke="#5e5e5e" stroke-width="3" fill="#fff"/><path d="M940.85-277.5v91.5c0 3.3-2.68 6-6 6H877.5" stroke="#5e5e5e" stroke-width="2" fill="none"/><path d="M941.85-277.47h-2v-1.03h2" fill="#5e5e5e"/><path d="M862.22-180l14.27-4.64v9.28z" stroke="#5e5e5e" stroke-width="2" fill="#5e5e5e"/><path d="M860-100c0 11.05-8.95 20-20 20s-20-8.95-20-20 8.95-20 20-20 20 8.95 20 20z" stroke="#5e5e5e" stroke-width="3" fill="#fff"/><path d="M852-100c0 6.63-5.37 12-12 12s-12-5.37-12-12 5.37-12 12-12 12 5.37 12 12z" stroke="#5e5e5e" stroke-width="3"/><path d="M840-160v18.33c0 .24-.2.43-.43.43-.23 0-.42.2-.42.43v.83" stroke="#5e5e5e" stroke-width="2" fill="none"/><path d="M840.33-160.97l.67-.15v1.13h-2v-1.15" fill="#5e5e5e"/><path d="M839.15-124.7l-4.64-14.27h9.28z" stroke="#5e5e5e" stroke-width="2" fill="#5e5e5e"/><path d="M739.14-277.5v91.5c0 3.3 2.7 6 6 6h57.37" stroke="#5e5e5e" stroke-width="2" fill="none"/><path d="M740.14-277.47h-2v-1.03h2" fill="#5e5e5e"/><path d="M817.78-180l-14.27 4.64v-9.28z" stroke="#5e5e5e" stroke-width="2" fill="#5e5e5e"/><defs><path fill="#333" d="M232-93c-1 65-40 97-104 97C67 4 28-28 28-90v-158h33c8 89-33 224 67 224 102 0 64-133 71-224h33v155" id="x"/><path fill="#333" d="M135-143c-3-34-86-38-87 0 15 53 115 12 119 90S17 21 10-45l28-5c4 36 97 45 98 0-10-56-113-15-118-90-4-57 82-63 122-42 12 7 21 19 24 35" id="y"/><path fill="#333" d="M100-194c63 0 86 42 84 106H49c0 40 14 67 53 68 26 1 43-12 49-29l28 8c-11 28-37 45-77 45C44 4 14-33 15-96c1-61 26-98 85-98zm52 81c6-60-76-77-97-28-3 7-6 17-6 28h103" id="z"/><path fill="#333" d="M114-163C36-179 61-72 57 0H25l-1-190h30c1 12-1 29 2 39 6-27 23-49 58-41v29" id="A"/><g id="a"><use transform="matrix(0.06172839506172839,0,0,0.06172839506172839,0,0)" xlink:href="#x"/><use transform="matrix(0.06172839506172839,0,0,0.06172839506172839,15.987654320987653,0)" xlink:href="#y"/><use transform="matrix(0.06172839506172839,0,0,0.06172839506172839,27.098765432098766,0)" xlink:href="#z"/><use transform="matrix(0.06172839506172839,0,0,0.06172839506172839,39.44444444444444,0)" xlink:href="#A"/></g><path fill="#333" d="M30-248c118-7 216 8 213 122C240-48 200 0 122 0H30v-248zM63-27c89 8 146-16 146-99s-60-101-146-95v194" id="B"/><path fill="#333" d="M141-36C126-15 110 5 73 4 37 3 15-17 15-53c-1-64 63-63 125-63 3-35-9-54-41-54-24 1-41 7-42 31l-33-3c5-37 33-52 76-52 45 0 72 20 72 64v82c-1 20 7 32 28 27v20c-31 9-61-2-59-35zM48-53c0 20 12 33 32 33 41-3 63-29 60-74-43 2-92-5-92 41" id="C"/><path fill="#333" d="M59-47c-2 24 18 29 38 22v24C64 9 27 4 27-40v-127H5v-23h24l9-43h21v43h35v23H59v120" id="D"/><path fill="#333" d="M115-194c53 0 69 39 70 98 0 66-23 100-70 100C84 3 66-7 56-30L54 0H23l1-261h32v101c10-23 28-34 59-34zm-8 174c40 0 45-34 45-75 0-40-5-75-45-74-42 0-51 32-51 76 0 43 10 73 51 73" id="E"/><g id="b"><use transform="matrix(0.06172839506172839,0,0,0.06172839506172839,0,0)" xlink:href="#B"/><use transform="matrix(0.06172839506172839,0,0,0.06172839506172839,15.987654320987653,0)" xlink:href="#C"/><use transform="matrix(0.06172839506172839,0,0,0.06172839506172839,28.333333333333332,0)" xlink:href="#D"/><use transform="matrix(0.06172839506172839,0,0,0.06172839506172839,34.50617283950617,0)" xlink:href="#C"/><use transform="matrix(0.06172839506172839,0,0,0.06172839506172839,46.85185185185185,0)" xlink:href="#E"/><use transform="matrix(0.06172839506172839,0,0,0.06172839506172839,59.197530864197525,0)" xlink:href="#C"/><use transform="matrix(0.06172839506172839,0,0,0.06172839506172839,71.5432098765432,0)" xlink:href="#y"/><use transform="matrix(0.06172839506172839,0,0,0.06172839506172839,82.65432098765432,0)" xlink:href="#z"/></g><path fill="#333" d="M137 0h-34L2-248h35l83 218 83-218h36" id="F"/><path fill="#333" d="M24-231v-30h32v30H24zM24 0v-190h32V0H24" id="G"/><path fill="#333" d="M206 0h-36l-40-164L89 0H53L-1-190h32L70-26l43-164h34l41 164 42-164h31" id="H"/><g id="c"><use transform="matrix(0.06172839506172839,0,0,0.06172839506172839,0,0)" xlink:href="#F"/><use transform="matrix(0.06172839506172839,0,0,0.06172839506172839,14.382716049382715,0)" xlink:href="#G"/><use transform="matrix(0.06172839506172839,0,0,0.06172839506172839,19.25925925925926,0)" xlink:href="#z"/><use transform="matrix(0.06172839506172839,0,0,0.06172839506172839,31.604938271604937,0)" xlink:href="#H"/></g><path fill="#333" d="M266 0h-40l-56-210L115 0H75L2-248h35L96-30l15-64 43-154h32l59 218 59-218h35" id="I"/><path fill="#333" d="M106-169C34-169 62-67 57 0H25v-261h32l-1 103c12-21 28-36 61-36 89 0 53 116 60 194h-32v-121c2-32-8-49-39-48" id="J"/><path fill="#333" d="M24 0v-261h32V0H24" id="K"/><g id="d"><use transform="matrix(0.06172839506172839,0,0,0.06172839506172839,0,0)" xlink:href="#I"/><use transform="matrix(0.06172839506172839,0,0,0.06172839506172839,20.925925925925924,0)" xlink:href="#G"/><use transform="matrix(0.06172839506172839,0,0,0.06172839506172839,25.80246913580247,0)" xlink:href="#y"/><use transform="matrix(0.06172839506172839,0,0,0.06172839506172839,36.91358024691358,0)" xlink:href="#J"/><use transform="matrix(0.06172839506172839,0,0,0.06172839506172839,49.25925925925926,0)" xlink:href="#K"/><use transform="matrix(0.06172839506172839,0,0,0.06172839506172839,54.135802469135804,0)" xlink:href="#G"/><use transform="matrix(0.06172839506172839,0,0,0.06172839506172839,59.01234567901235,0)" xlink:href="#y"/><use transform="matrix(0.06172839506172839,0,0,0.06172839506172839,70.12345679012346,0)" xlink:href="#D"/></g><path fill="#333" d="M33 0v-248h34V0H33" id="L"/><g id="e"><use transform="matrix(0.04320987654320986,0,0,0.04320987654320986,0,0)" xlink:href="#L"/><use transform="matrix(0.04320987654320986,0,0,0.04320987654320986,4.320987654320986,0)" xlink:href="#y"/></g><path fill="#333" d="M30 0v-248h33v221h125V0H30" id="M"/><path fill="#333" d="M100-194c62-1 85 37 85 99 1 63-27 99-86 99S16-35 15-95c0-66 28-99 85-99zM99-20c44 1 53-31 53-75 0-43-8-75-51-75s-53 32-53 75 10 74 51 75" id="N"/><path fill="#333" d="M177-190C167-65 218 103 67 71c-23-6-38-20-44-43l32-5c15 47 100 32 89-28v-30C133-14 115 1 83 1 29 1 15-40 15-95c0-56 16-97 71-98 29-1 48 16 59 35 1-10 0-23 2-32h30zM94-22c36 0 50-32 50-73 0-42-14-75-50-75-39 0-46 34-46 75s6 73 46 73" id="O"/><path fill="#333" d="M85-194c31 0 48 13 60 33l-1-100h32l1 261h-30c-2-10 0-23-3-31C134-8 116 4 85 4 32 4 16-35 15-94c0-66 23-100 70-100zm9 24c-40 0-46 34-46 75 0 40 6 74 45 74 42 0 51-32 51-76 0-42-9-74-50-73" id="P"/><g id="f"><use transform="matrix(0.04320987654320986,0,0,0.04320987654320986,0,0)" xlink:href="#M"/><use transform="matrix(0.04320987654320986,0,0,0.04320987654320986,8.641975308641973,0)" xlink:href="#N"/><use transform="matrix(0.04320987654320986,0,0,0.04320987654320986,17.283950617283946,0)" xlink:href="#O"/><use transform="matrix(0.04320987654320986,0,0,0.04320987654320986,25.925925925925917,0)" xlink:href="#O"/><use transform="matrix(0.04320987654320986,0,0,0.04320987654320986,34.56790123456789,0)" xlink:href="#z"/><use transform="matrix(0.04320987654320986,0,0,0.04320987654320986,43.209876543209866,0)" xlink:href="#P"/></g><path fill="#333" d="M117-194c89-4 53 116 60 194h-32v-121c0-31-8-49-39-48C34-167 62-67 57 0H25l-1-190h30c1 10-1 24 2 32 11-22 29-35 61-36" id="Q"/><path fill="#333" d="M103-251c84 0 111 97 45 133-19 10-37 24-39 52H78c0-63 77-55 77-114 0-30-21-42-52-43-32 0-53 17-56 46l-32-2c7-45 34-72 88-72zM77 0v-35h34V0H77" id="R"/><g id="g"><use transform="matrix(0.04320987654320986,0,0,0.04320987654320986,0,0)" xlink:href="#L"/><use transform="matrix(0.04320987654320986,0,0,0.04320987654320986,4.320987654320986,0)" xlink:href="#Q"/><use transform="matrix(0.04320987654320986,0,0,0.04320987654320986,12.962962962962958,0)" xlink:href="#R"/></g><path fill="#333" d="M115-194c55 1 70 41 70 98S169 2 115 4C84 4 66-9 55-30l1 105H24l-1-265h31l2 30c10-21 28-34 59-34zm-8 174c40 0 45-34 45-75s-6-73-45-74c-42 0-51 32-51 76 0 43 10 73 51 73" id="S"/><path fill="#333" d="M179-190L93 31C79 59 56 82 12 73V49c39 6 53-20 64-50L1-190h34L92-34l54-156h33" id="T"/><g id="h"><use transform="matrix(0.03703703703703702,0,0,0.03703703703703702,0,0)" xlink:href="#B"/><use transform="matrix(0.03703703703703702,0,0,0.03703703703703702,9.592592592592588,0)" xlink:href="#G"/><use transform="matrix(0.03703703703703702,0,0,0.03703703703703702,12.51851851851851,0)" xlink:href="#y"/><use transform="matrix(0.03703703703703702,0,0,0.03703703703703702,19.185185185185176,0)" xlink:href="#S"/><use transform="matrix(0.03703703703703702,0,0,0.03703703703703702,26.59259259259258,0)" xlink:href="#K"/><use transform="matrix(0.03703703703703702,0,0,0.03703703703703702,29.518518518518505,0)" xlink:href="#C"/><use transform="matrix(0.03703703703703702,0,0,0.03703703703703702,36.92592592592591,0)" xlink:href="#T"/></g><path fill="#333" d="M30 0v-248h187v28H63v79h144v27H63v87h162V0H30" id="U"/><g id="i"><use transform="matrix(0.03703703703703702,0,0,0.03703703703703702,0,0)" xlink:href="#U"/><use transform="matrix(0.03703703703703702,0,0,0.03703703703703702,8.888888888888886,0)" xlink:href="#A"/><use transform="matrix(0.03703703703703702,0,0,0.03703703703703702,13.29629629629629,0)" xlink:href="#A"/><use transform="matrix(0.03703703703703702,0,0,0.03703703703703702,17.703703703703695,0)" xlink:href="#N"/><use transform="matrix(0.03703703703703702,0,0,0.03703703703703702,25.1111111111111,0)" xlink:href="#A"/></g><path fill="#333" d="M175 0L67-191c6 58 2 128 3 191H24v-248h59L193-55c-6-58-2-129-3-193h46V0h-61" id="V"/><path fill="#333" d="M110-194c64 0 96 36 96 99 0 64-35 99-97 99-61 0-95-36-95-99 0-62 34-99 96-99zm-1 164c35 0 45-28 45-65 0-40-10-65-43-65-34 0-45 26-45 65 0 36 10 65 43 65" id="W"/><g id="j"><use transform="matrix(0.04938271604938272,0,0,0.04938271604938272,0,0)" xlink:href="#V"/><use transform="matrix(0.04938271604938272,0,0,0.04938271604938272,12.790123456790125,0)" xlink:href="#W"/></g><path fill="#333" d="M146-102V0H94v-102L6-248h54l60 105 60-105h54" id="X"/><path fill="#333" d="M185-48c-13 30-37 53-82 52C43 2 14-33 14-96s30-98 90-98c62 0 83 45 84 108H66c0 31 8 55 39 56 18 0 30-7 34-22zm-45-69c5-46-57-63-70-21-2 6-4 13-4 21h74" id="Y"/><path fill="#333" d="M137-138c1-29-70-34-71-4 15 46 118 7 119 86 1 83-164 76-172 9l43-7c4 19 20 25 44 25 33 8 57-30 24-41C81-84 22-81 20-136c-2-80 154-74 161-7" id="Z"/><g id="k"><use transform="matrix(0.04938271604938272,0,0,0.04938271604938272,0,0)" xlink:href="#X"/><use transform="matrix(0.04938271604938272,0,0,0.04938271604938272,10.864197530864198,0)" xlink:href="#Y"/><use transform="matrix(0.04938271604938272,0,0,0.04938271604938272,20.74074074074074,0)" xlink:href="#Z"/></g><path fill="#333" d="M63-220v92h138v28H63V0H30v-248h175v28H63" id="aa"/><path fill="#333" d="M96-169c-40 0-48 33-48 73s9 75 48 75c24 0 41-14 43-38l32 2c-6 37-31 61-74 61-59 0-76-41-82-99-10-93 101-131 147-64 4 7 5 14 7 22l-32 3c-4-21-16-35-41-35" id="ab"/><g id="l"><use transform="matrix(0.04320987654320987,0,0,0.04320987654320987,0,0)" xlink:href="#aa"/><use transform="matrix(0.04320987654320987,0,0,0.04320987654320987,9.46296296296296,0)" xlink:href="#z"/><use transform="matrix(0.04320987654320987,0,0,0.04320987654320987,18.104938271604933,0)" xlink:href="#D"/><use transform="matrix(0.04320987654320987,0,0,0.04320987654320987,22.42592592592592,0)" xlink:href="#ab"/><use transform="matrix(0.04320987654320987,0,0,0.04320987654320987,30.2037037037037,0)" xlink:href="#J"/></g><g id="m"><use transform="matrix(0.04320987654320987,0,0,0.04320987654320987,0,0)" xlink:href="#B"/><use transform="matrix(0.04320987654320987,0,0,0.04320987654320987,11.191358024691356,0)" xlink:href="#C"/><use transform="matrix(0.04320987654320987,0,0,0.04320987654320987,19.83333333333333,0)" xlink:href="#D"/><use transform="matrix(0.04320987654320987,0,0,0.04320987654320987,24.154320987654316,0)" xlink:href="#C"/></g><path fill="#333" d="M210-169c-67 3-38 105-44 169h-31v-121c0-29-5-50-35-48C34-165 62-65 56 0H25l-1-190h30c1 10-1 24 2 32 10-44 99-50 107 0 11-21 27-35 58-36 85-2 47 119 55 194h-31v-121c0-29-5-49-35-48" id="ac"/><g id="n"><use transform="matrix(0.04320987654320987,0,0,0.04320987654320987,0,0)" xlink:href="#aa"/><use transform="matrix(0.04320987654320987,0,0,0.04320987654320987,9.46296296296296,0)" xlink:href="#A"/><use transform="matrix(0.04320987654320987,0,0,0.04320987654320987,14.604938271604935,0)" xlink:href="#N"/><use transform="matrix(0.04320987654320987,0,0,0.04320987654320987,23.246913580246908,0)" xlink:href="#ac"/></g><path fill="#333" d="M160-131c35 5 61 23 61 61C221 17 115-2 30 0v-248c76 3 177-17 177 60 0 33-19 50-47 57zm-97-11c50-1 110 9 110-42 0-47-63-36-110-37v79zm0 115c55-2 124 14 124-45 0-56-70-42-124-44v89" id="ad"/><g id="o"><use transform="matrix(0.04320987654320987,0,0,0.04320987654320987,0,0)" xlink:href="#B"/><use transform="matrix(0.04320987654320987,0,0,0.04320987654320987,11.191358024691356,0)" xlink:href="#ad"/></g><g id="p"><use transform="matrix(0.04320987654320987,0,0,0.04320987654320987,0,0)" xlink:href="#B"/><use transform="matrix(0.04320987654320987,0,0,0.04320987654320987,11.191358024691356,0)" xlink:href="#C"/><use transform="matrix(0.04320987654320987,0,0,0.04320987654320987,19.83333333333333,0)" xlink:href="#D"/><use transform="matrix(0.04320987654320987,0,0,0.04320987654320987,24.154320987654316,0)" xlink:href="#C"/></g><path fill="#333" d="M233-177c-1 41-23 64-60 70L243 0h-38l-65-103H63V0H30v-248c88 3 205-21 203 71zM63-129c60-2 137 13 137-47 0-61-80-42-137-45v92" id="ae"/><path fill="#333" d="M108 0H70L1-190h34L89-25l56-165h34" id="af"/><g id="q"><use transform="matrix(0.04320987654320987,0,0,0.04320987654320987,0,0)" xlink:href="#ae"/><use transform="matrix(0.04320987654320987,0,0,0.04320987654320987,11.191358024691356,0)" xlink:href="#z"/><use transform="matrix(0.04320987654320987,0,0,0.04320987654320987,19.83333333333333,0)" xlink:href="#ab"/><use transform="matrix(0.04320987654320987,0,0,0.04320987654320987,27.611111111111104,0)" xlink:href="#z"/><use transform="matrix(0.04320987654320987,0,0,0.04320987654320987,36.253086419753075,0)" xlink:href="#G"/><use transform="matrix(0.04320987654320987,0,0,0.04320987654320987,39.66666666666666,0)" xlink:href="#af"/><use transform="matrix(0.04320987654320987,0,0,0.04320987654320987,47.444444444444436,0)" xlink:href="#z"/><use transform="matrix(0.04320987654320987,0,0,0.04320987654320987,56.08641975308641,0)" xlink:href="#P"/></g><g id="r"><use transform="matrix(0.04320987654320987,0,0,0.04320987654320987,0,0)" xlink:href="#B"/><use transform="matrix(0.04320987654320987,0,0,0.04320987654320987,11.191358024691356,0)" xlink:href="#G"/><use transform="matrix(0.04320987654320987,0,0,0.04320987654320987,14.604938271604935,0)" xlink:href="#y"/><use transform="matrix(0.04320987654320987,0,0,0.04320987654320987,22.38271604938271,0)" xlink:href="#S"/><use transform="matrix(0.04320987654320987,0,0,0.04320987654320987,31.024691358024686,0)" xlink:href="#K"/><use transform="matrix(0.04320987654320987,0,0,0.04320987654320987,34.438271604938265,0)" xlink:href="#C"/><use transform="matrix(0.04320987654320987,0,0,0.04320987654320987,43.08024691358024,0)" xlink:href="#T"/></g><g id="s"><use transform="matrix(0.04320987654320987,0,0,0.04320987654320987,0,0)" xlink:href="#I"/><use transform="matrix(0.04320987654320987,0,0,0.04320987654320987,14.648148148148145,0)" xlink:href="#G"/><use transform="matrix(0.04320987654320987,0,0,0.04320987654320987,18.061728395061724,0)" xlink:href="#y"/><use transform="matrix(0.04320987654320987,0,0,0.04320987654320987,25.8395061728395,0)" xlink:href="#J"/><use transform="matrix(0.04320987654320987,0,0,0.04320987654320987,34.481481481481474,0)" xlink:href="#K"/><use transform="matrix(0.04320987654320987,0,0,0.04320987654320987,37.895061728395056,0)" xlink:href="#G"/><use transform="matrix(0.04320987654320987,0,0,0.04320987654320987,41.30864197530864,0)" xlink:href="#y"/><use transform="matrix(0.04320987654320987,0,0,0.04320987654320987,49.08641975308642,0)" xlink:href="#D"/></g><path fill="#333" d="M190 0L58-211 59 0H30v-248h39L202-35l-2-213h31V0h-41" id="ag"/><g id="t"><use transform="matrix(0.04320987654320987,0,0,0.04320987654320987,0,0)" xlink:href="#ag"/><use transform="matrix(0.04320987654320987,0,0,0.04320987654320987,11.191358024691356,0)" xlink:href="#N"/></g><g id="u"><use transform="matrix(0.04320987654320987,0,0,0.04320987654320987,0,0)" xlink:href="#B"/><use transform="matrix(0.04320987654320987,0,0,0.04320987654320987,11.191358024691356,0)" xlink:href="#C"/><use transform="matrix(0.04320987654320987,0,0,0.04320987654320987,19.83333333333333,0)" xlink:href="#D"/><use transform="matrix(0.04320987654320987,0,0,0.04320987654320987,24.154320987654316,0)" xlink:href="#C"/></g><path fill="#333" d="M127-220V0H93v-220H8v-28h204v28h-85" id="ah"/><g id="v"><use transform="matrix(0.04320987654320987,0,0,0.04320987654320987,0,0)" xlink:href="#ah"/><use transform="matrix(0.04320987654320987,0,0,0.04320987654320987,7.734567901234565,0)" xlink:href="#N"/></g><g id="w"><use transform="matrix(0.04320987654320987,0,0,0.04320987654320987,0,0)" xlink:href="#B"/><use transform="matrix(0.04320987654320987,0,0,0.04320987654320987,11.191358024691356,0)" xlink:href="#G"/><use transform="matrix(0.04320987654320987,0,0,0.04320987654320987,14.604938271604935,0)" xlink:href="#y"/><use transform="matrix(0.04320987654320987,0,0,0.04320987654320987,22.38271604938271,0)" xlink:href="#S"/><use transform="matrix(0.04320987654320987,0,0,0.04320987654320987,31.024691358024686,0)" xlink:href="#K"/><use transform="matrix(0.04320987654320987,0,0,0.04320987654320987,34.438271604938265,0)" xlink:href="#C"/><use transform="matrix(0.04320987654320987,0,0,0.04320987654320987,43.08024691358024,0)" xlink:href="#T"/></g></defs></g></svg>